<svg xmlns="http://www.w3.org/2000/svg" version="1.1" x="0" y="0" width="112" height="84" viewBox="0 0 112 84" enable-background="new 0 0 112 84" xml:space="preserve"><polygon opacity="0.3" points="0 0 28 14 28 42 0 27.9 "/><polygon opacity="0.1" points="56 0 28 14 28 42 56 27.9 "/><polygon opacity="0.3" points="56 0 84 14 84 42 56 27.9 "/><polygon opacity="0.1" points="112 0 84 14 84 42 112 27.9 "/><polygon opacity="0.3" points="84 42 112 56 112 84 84 69.9 "/><polygon opacity="0.1" points="28 42 0 56 0 84 28 69.9 "/><polygon opacity="0.3" points="28 42 56 56 56 84 28 69.9 "/><polygon opacity="0.1" points="84 42 56 56 56 84 84 69.9 "/><line opacity="0.1" fill="none" stroke="#000000" stroke-miterlimit="10" x1="0" y1="0" x2="112" y2="56"/><line opacity="0.1" fill="none" stroke="#000000" stroke-miterlimit="10" x1="0" y1="-28" x2="112" y2="28"/><line opacity="0.1" fill="none" stroke="#000000" stroke-miterlimit="10" x1="0" y1="56" x2="112" y2="112"/><line opacity="0.1" fill="none" stroke="#000000" stroke-miterlimit="10" x1="0" y1="28" x2="112" y2="84"/><line opacity="0.1" fill="none" stroke="#000000" stroke-miterlimit="10" x1="112" y1="0" x2="0" y2="56"/><line opacity="0.1" fill="none" stroke="#000000" stroke-miterlimit="10" x1="112" y1="28" x2="0" y2="84"/><line opacity="0.1" fill="none" stroke="#000000" stroke-miterlimit="10" x1="112" y1="56" x2="0" y2="112"/><line opacity="0.1" fill="none" stroke="#000000" stroke-miterlimit="10" x1="112" y1="-28" x2="0" y2="28"/></svg>
