<svg xmlns="http://www.w3.org/2000/svg" x="0" y="0" width="30" height="16" viewBox="0 0 30 16" enable-background="new 0 0 30 16" xml:space="preserve">
<g fill="#33333" opacity="0.05">
<polygon points="5.5,15 1,7.5 5.5,0 14.5,0 19,7.5 14.5,15 "/>
<polygon points="20.5,23 16,15.5 20.5,8 29.5,8 34,15.5 29.5,23 "/>
<polygon points="20.5,7 16,-0.5 20.5,-8 29.5,-8 34,-0.5 29.5,7 "/>
<polygon points="-9.5,7 -14,-0.5 -9.5,-8 -0.5,-8 4,-0.5 -0.5,7 "/>
<polygon points="-9.5,23 -14,15.5 -9.5,8 -0.5,8 4,15.5 -0.5,23 "/>
</g>
</svg>

