<svg xmlns="http://www.w3.org/2000/svg" width="265.92" height="111.63" viewBox="0 0 265.92 111.63"><g fill="#FC20C4"><path d="M265.2 64.3l-1.1 1.5 1.5-.12c.44-.33.53-1.37-.4-1.4zm-5.12-2.08c-.25-.45.16-.8.3-1.1-1.23.54-2.74 1.8-2.37 3.46 1.4-1.44 1.5-.7 3.1-2.33 1 .03 1.5.92 1.2 1.5.4-.35 1.3.7 2.1-.22-.8-1.57-2.3-2-4.1-1.3zm-89.8-3.72c-.16-.12-.35-.2-.57-.24l.6.24zm-20.2-26.1c-.3.22-.35.44-.3.58.23-.26.4-.5.28-.58zm7.88-.44l-.44-.06c.18.14.35.2.44.06zm11.74 26.3l-1.42-.63c-.16.56.72.46 1.43.63zm77.9 5.04c.3-.04.57-.17.82-.35-.26.05-.5.08-.76.1 0 .1-.03.17-.07.26zm-35-6.06c.2-.62.5-.93.86-1.07 0-.28-.1-.6-.27-1-.5-.04-.5 1.42-.6 2.07zm31.26-.14l.56-.17c-.15.06-.4.1-.56.17zm-63.12-.15c-.03-.22-.1-.4-.17-.52 0 .18.07.36.17.52zM21.14 92.92c-.1-.06-.17-.07-.25-.1 0 .16.1.23.2.1zm-16.47 16.7l.08-.3c-.22-.17-.44-.34-.68-.47l.6.77zm164.63-71.6c0-.02 0-.03-.02-.05-.4-.1-.22 0 .03.06zM84.6 52.46c2.18-.04-1.23 3.05 1.74 2.6-.53-.3.5-3.28-1.74-2.6zm162.54 10.62c-.25 0-.5-.03-.75-.07.3.1.5.1.7.1zm-62.87 3.53h-.64c.25.1.45.1.64.1zM177 42.8l.23.7c-.04-.32-.13-.53-.22-.7zm.35 26.3c-.16-.13-.3-.22-.7-.2.03.1.06.15.1.22.2-.1.38-.15.6-.03zm0 0l.27.2c-.1-.1-.18-.16-.27-.2zm-15.87-3.13c.05.15.14.25.2.37l.5.03-.7-.4zM40.95 48.55c1.02.3.16 2.5 1.5.02-.53.1-1.03.06-1.5-.02z"/><path d="M247.67 62.5c-.13.35-.28.52-.53.57.18 0 .36 0 .53-.02.07-.2.1-.4 0-.55zm-73.75 17.6l-2.43-.9c.6.3 1.4.64 2.4.9zM30.17 34.44c-.26 0-.5.05-.64.23l.64-.23zM163.7 77.76l.88.46c-.4-.6-.85-.96-1.36-1.26-.13.1-.28.16-.4.3l.9.5zM16.7 37.1l.67-.56c-.22.18-.45.36-.66.55zm152.27-.1c-.15-.1-.3-.17-.47-.22.18.12.33.18.47.23zm5.76 32.43l-.07.1c.03-.03.06-.06.07-.1zM178 43.1c.2.05.36.13.5.23-.3-.22-.5-.6-.5-.22z"/><path d="M255.65 62.77c-1.7.8-2.14-.87-2.16-1.4l1.2-.1c-.8-3.22-4.8-.17-7.1-.6l1.2-2.04-1.3.75-1.3.76c-.5-.6-.8-1.82.5-2.05-1.7-1.2-1.6.6-3-.7-.2-.2-.1-.3.1-.4l-1.8.5c.3-.5-.2-1.6.8-1.2-3-1.5-5 1.4-6.1-.3l.2-.2c-4.3.6-.5 1.5-3.6 3.4l-2.2-3.9-.4 1.6c-.4-.1-1.3-.2-1.2-.8-1.6 1.1.3.7-.6 1.7-2.2-1.5-5.7.9-6.3-1.6-.7 1.2 2 .8-.2 1.7-.8-2.7-2.6.6-4.5-.5.5-1.4 2.3-.8.3-1.9-1 2.4-3.7-.3-5.3.3.1 1.8-3.4 1-6 1.8.1-.7-5.1-.7-7.6-1.2l.1-.3c-.3 1.7-2.3 1.8-4.1 2.1l-.5-1c.2-.4.5-.7 1.1-1.1l-1.7.1-.1-.1.2-.6-.4.4c-.5-.9-1-1.6-1.5-2.4-1.2-1.8-2.3-3.6-3.1-6-.3-1.3 1.3.3 1.8.5-1.5-2.2-2.6-4.4-3.8-6.6-1.2-2.1-2.5-4.1-4.3-5.7.2-.1.7.2 1.1.5-.6-.7-.9-2-1.7-1.3l.8.6c-.3 1.1-1.4.8-2.6.3-1.3-.4-2.5-1-2.9-.8 1.6-.4 1.1-1.4.6-2.3-.5-1-1-2 1.4-2.3-.6-.4-1.6-.7-2 0-.6-.9-.6-1.5.7-1.3-1.7-1.2-2.3-1.1-3-1.1-.6 0-1.1-.1-2.4-1.1.3-.5 1-.3 1.6-.5-.9-.1-2-.1-2.9-.4-.9-.3-2-.6-3.1-1.4.2-.2.2-.6.7-.5-.5-.2-.9-.4-1.4-.5l-1.7-.3c-1-.2-2.1-.1-3.2 0-2.1.1-4.1.3-6.6-.1 1.3-2.4-1.8-.6-2.4-2.4l-.4.2-1 .4-1.4.6.7.3.6.3c-1.2.2-2.2.9-3.2 1.5s-1.7 1.2-2.8 1.3l.2-.2.4-.5.6-.7-.6.3c-.4.2-.9.5-1.4.8l-1.3.9-.6.4.4-.2.9-.2 1.2-.3c-.8 1-.4 1.5-.2 1.9.2.4.2.5-1.2 1.1.2-.2-.28.1-.97.4-.7.3-1.5.8-2.4.8-.2.5-.4 1.2-.7 1.8-.1.3-.3.5-.5.8-.2.3-.5.5-.8.8-.8 0-1.5-1.6-2-1.6.1.5 0 1-.2 1.6-.2.6-.57 1.2-.87 1.9-.2.7-.5 1.4-.6 2.1 0 .6.1 1.3.4 1.7-.3-.5-1.2-.9-1.5-.8l.5.7.5.6c-.6 1-.8 1.2-1.6.8-.2.9-.1 1.3.1 1.42.2.2.5.1.7 0 .6-.1.9-.2.4 1.8-.1-.3-.3-.1-.5-.8-.2 1.1 0 2.1.2 3.1l.6 1.5.1.3-1.5-.4-.5-.5-.1.4-2.6-.6.24 2.15c.1.8 2.1.5 1.5 2.6-.5.2-1.1.5-1.7.8-.7.2-1.2.1-1.8-.3l.3-.6.4-.9c-1.1-.03-1.4.6-1.3.9 0 .4 0 1-.3 1.1l-.5-.7c-.4.67-.5 1.4-.8 2.17-.3.8-.96 1.4-2.2 1l.1.4.1.36c-.86.9-1.2.36-1.4-.1-.2-.5-.3-.95-1.3-.7l.3-1c.2-.5.3-1 .3-1-.6-.1-1.86-.3-3.2-.7-1.4-.4-2.9-.9-4-1.5 2-.5 4.9.7 6.8.9-1-.7-3.8-2.55-5.1-2.15.6.17 1.5.2 1.8.76-2.34.3-4.6-.4-7.13-1.8 1.2-1.6-.4-2.82-2.8-3.8-1.2-.5-2.6-.9-3.8-1.2-1.2-.4-2.4-.7-3.1-1.5-.5.1-.8.28-1.4.4-.5.1-1 .2-1.5.4l-1.3.5-1 .5c-1.4.6-2.8 1.2-4.1 1.8-2.7 1.3-5.2 2.7-7.4 4.6 3.5 1.2-1.23 1.1 1 3.4-.9 1-1.3 1.2-1.5 1.17l.3-.1-.3.03-2.1.4c-.5.1-1 .1-1.4.1l-.6.02c-.3-.1-.3-.3-.4-.4 0-.1 0-.2.2-.4.2-.3.5-.6.2-.9-1.1.6-1.2.2-1.5-.1-.2-.3-.6-.7-.7-1.1.2.56.3.9.3 1.17 0 .2-.2.3-.3.1 0 0 .1.3.3.7.2.3.5.6.5.6-.2.5-.5.7-.7.5s-.4-.4-.4-.8c-.1-.3-.1-.7-.14-.9 0-.2-.1-.1-.5.1 0 0 .2-.1.4-.4l.3-.4c-.2.3-.4.1-.7.1h.1l-.4-.5-.7-1c-.45-.7-.86-1.4-1.3-2l-.6-.85s-.4-.5-.6-.7c-.36-.4-.7-.6-1.1-.7 0-1 .25-3 1-1.5-.5-1.6-1-3.1-1.6-4.5.5-.4.9-.9 1.3-1.36.4-.5.8-1 1-1.5.3-.5.4-.9.5-1.3.1-.76-.2-1.25-1-1.35.8.4 1.6-1.1 1.9-3 .2-1.9-.2-4-.5-5.3l1.4.5c-.8-1.2-1.4-1.8-1.8-2.5-.4-.6-.7-1.4-1-2.8.1-.3.33-.5.6-.5.2.1.4.3.2.8.1-.3.13-.5.1-.8 0-.3 0-.5-.07-.7-.1-.5-.4-.7-.6-1-.5-.6-.8-1.2-.7-3.1 0-.06 1 .9 1 .92-.4-3.2-.8-2.8-2.05-3.6-.4-.7-.6-1.97-.54-3.4 0-1.47.2-3.1.7-4.1-.36.2-.8.3-1.2.04-.4-.2-.7-.7-.77-1.8.1-.22.2-.5.33-.6.2-.2.33-.1.5 0l-.1-1c-.3-.3-.8 0-1.3.2s-.98.4-1.4.7c-.9.5-1.7 1.1-2.4 1.6s-1.4 1-2 1.3c-.3.2-.67.3-1 .4-.3.1-.6.2-1 .2 0-.5-.3-.6-.5-.7 1.8-1 3.5-1.7 4.6-2.2.9-.4 1.6-.6 1.65-.6.3-.8-.4-.9-.7-1.3-.3-.3-.48-.8 1.3-2.6C68 2.5 66 4.2 64.2 5.8c-.9.9-1.8 1.6-2.6 2.3-.4.3-.8.6-1.2.83-.4.3-.8.5-1.2.7-.2 0-.4 0-.56-.16l.2-.4c-.7.4-1.3.95-1.8 1.6-1.03.45-1.7.8-2.6 1.6-.1-.1-.3-.1-.5-.1l-.5.16c-.3.1-.6.3-.9.6-.7.5-1.3 1.3-1.77 1.7 1 1-.3 1.97 1.6 1.7-.2.1.1-.3.6-.9.1-.1.3-.3.3-.5v.2l1-.94.6-.5.9-.8c-.2.4-.3.7-.5 1.1-.1.3-.2.5-.4.8-.3.5-.8.8-1.5 1 .2 1.1.4 2.3.46 2.9-2.6-.4-5.56 1.3-6.8.8-1.88 3.3-5.16 7.2-4.2 10.6-.35 1-1.36.5-1.9.6.1-.7.54-1.2.4-1.7-.4 1.3-1.5 2.9-2 4.3l-.96-.2c-1.4-.2-2.1 1.9-3.75 2.2V34l-1.13.87-1.2.88-.7-.92-.7-.9-1.7.52c.6.03 1.4.6 1.3 1.07-.6.22-1.3.3-2 .28-.4 0-.7-.03-1.1-.08-.4-.04-.6-.13-1.1-.17-1.7-.24-3.5-.54-3.7-.92 0 0-2.3.8-4.3 1.84-1 .47-1.8 1.05-2.5 1.42l-1 .6c-.3-.4.3-1 .9-1.5-.4.4-.8.5-1 .6-.4.1-.7 0-1-.1s-.5-.3-.9-.2c-.4.1-.8.4-1.4 1.1.9 0 .7.7 1 1-1.3.1-3 .8-4.6 1.7-.9.4-1.7.9-2.5 1.4-.4.2-.8.5-1.1.8-.2.1-.3.2-.4.4-.1.1-.2.2-.3.4l.2.2c-.4-.2-.7-.3-.8-.4l-.9-.4c-.1 0-.2.1-.3.2 4.5 5.5 9.9 11.4 16.4 16.5-1-1.2-1-1.9-.5-2.2.5-.4 1.4-.3 2.3.3l-.2.9-.2.9c1.6-.1-1.2-1.7 1.5-1.3 1.4 1.2-.1 2.3-1.3 2.1l1.1.4 1.1.4c-.1.5-.8.4-1.3.8.7-.2 1.3.6 2 1.5-1.7 4.1-3.5 8.2-6.5 11.4-1.5 1.9-.5 2.7-.3 4.4l-1.6-.2.5 3c-.3 3.8-6.1 4-5.8 9.2l1.2-.1c-.8 1.4-1.6 4.9-2.5 4.1.1.2.8.9 0 1.3l-.7-.3-.6 4.2c-2 2.4-2.7-1.9-4.9 1.9-.5 1.6-.2 5.2.6 4.9.33-.5 1.3-1.2 2-.9l-.3 1.6c2 1.4 3.5 3.8 6.9 1.1v-3l1.4-.2-1 2c1.6-.6 1.1-1.8.9-2.9.6.1 1.2-.1 1.7-.4V104l-.5-1.7c1 .13 1.14 1.9 2.4.54-.4-1.56-2.4.14-2.16-2 1.5-.65 2.2.07 2-1.7.6.1.8.55.8 1.2-.1-1.53 1.25-3.32.4-4.5 1.8-.6 1.6-4.2 3.6-3.1-.3-.6-.6-2.9-.2-4 1.53 3.16 2.1-4.06 4.5-2.3-1.6-2.5 1.5-5.8 1.5-9 .1.25.3.7.1.88.9-1.35 1.7-1.46 2.6-2.2-1.8-1.06-1.1-3.54-1.6-5.3 2.6-.95 1.6 2.1 3.5 2.37-1.6-.7 0-3.8-1.5-3.8 1.7-.9 1.1-1 2.9-.9l.6.1c2 .3 3.8.6 6.3.7.1-.8.6-1 1.2-1.2.6-.3 1.4-.5 2.1-1.1 1.6.1 3.4.4 5.3.3 1.9-.1 3.8-.4 5.6-1.2 2.25-1.7.3-1.4 1-2.7.37.5 1.4.4 2.17.3.8-.1 1.3-.2.6.7 2-1.2 3.2-2 4.5-3 .6-.5 1.2-1.1 1.9-1.8.3-.2.2-.2.3-.3l.1-.3.4-.8c-.4-.5-.8-.5-.8-1 .1-.3.4-.3.6-.2.2.1.4.4.5.8l-.1.2c.2-.7.6-1.2 1-1.4.2-.1.4-.2.5-.2h.33v.2c0 1.5-.1 2.8-.18 3.4 0 .3 0 .5.1.5s.2.1.33.1h.2s.1.1.2.1l.2.2.4.3 1 .8 1 .8 1.2.7 1.2.6c.4.2.8.3 1.1.5l1.1.3c1.5.7 1 .7.3.9-.64 0-1.53 0-.43 1 2.2.3 4.1.1 5.8-.2 1.7-.3 3.3-.7 4.7-1.3.4-.2.7-.3 1.1-.5l.9-.5c.7-.3 1.1-.6 1.6-.9 1-.6 1.7-1.4 2.4-2.4 2.6.5 4.8-1.5 6.8-3.2 1-.9 2-1.8 3-2.3 1-.5 1.9-.7 2.7-.4l-.4-.8c.5-1.1.7.3.8.5-.1-.7-.3-.8-.3-1.3l.2-.1c.2 0 .34-.1.5-.1.3 0 .66-.1 1-.1.7 0 1.4.2 2.2.5.74.3 1.54.8 2.3 1.3.8.6 1.6 1.2 2.5 2 .8.7 1.7 1.5 2.6 2.4.9.8 1.9 1.8 3.1 2.7l.5.3.7.5c.5.3.93.7 1.5.9l1.54.9s1.1.5 1.7.7c2.2.8 4.6 1 6.9.6 1.7-.4 2.6-1.2 3.1-1.9.5-.8.7-1.5.9-2.2.1-.4.2-.8.4-1.2v.1c1.9 2.4 4.2 4.7 7.1 6.2-.6 0-1 .4-1.6-.2.1.5.6 1.1 1.1 1.6.5.5 1.2.9 1.9 1.2 1.4.7 2.8.8 3 .4 1.1.8-.2.9.3 1.8.6.8 1.9.9 3 1.1 1 .1 2 .2 2.2.9 0 .1-.3.2-.6.1 1.5.2 4.6 1.7 4 .1 2.7 1.5 5.5.7 7.6 2 .8-.7 2-.3 3 0l.4.1.5.1h.9c.2-.2.4-.4.6-1-.1 1.2.4 1.7 1.5 2 1.1.3 2.8.4 3.8.1-.4.2-.1.5.2.8.3.3.6.6.1 1 1 .2 2.1.4 2.9.3.9-.1 1.4-.4 1.3-1.1.5.5 1 .8 1.7 1 .7.2 1.5.3 2.2.3.8 0 1.5-.16 2.2-.37.3-.1.7-.2 1-.37l.9-.47.83-.5c.3-.2.5-.36.8-.5.5-.36 1-.6 1.5-.9.5-.3.9-.5 1.5-.65.5-.2 1-.3 1.7-.3.8-1 1.4-2.17 1.8-3.3.5-1.17.8-2.3.9-3.5l.1-1.8v-1c-.1-.9-.2-1.8-.4-2.68-.2-.95-.4-1.86-.62-2.73.44-.2 1-.4 1.44-.4-1.9.9.2 1.9 1.1 2.5-.2-.3.1-.8 0-1.1 2.5 2 .2-2.4 3.5-1.2l-.1.7c1.2-.4 2.2-1.3 3.5-1.2.6 1.4-1.2.8-1.2 1.9 1.8-.2 3.4-2.9 5.1-1.6-.7.4-1.8.5-2.6 1 1.9 1.5 2.1 1.1 3.4 1.2h-.1l3.1.5-.8-.4c2-3.8 4.55-1 7.4-3.6-2.8 2.4-.4 1.3-.5 2.9.8.4 2 .8 1.7 1.2 1.37-1.3 2.4.9 4.3-1.1.15.5 1.56 0 1.3 1.3 1.8-.5-.5-.9-.34-1.5.7-.5 1.4-.6 2.3-.5.8 0 1.7.3 2.6.5 1.8.4 3.8.7 5.8-.4 3.5-.9 4.2-2.7 7.6-3.3 1.04.9-1 1.8-1 1.8 1.7.9 3.04.8 4.8.3-.4.4-.1.8.36 1.4 1.3 0 1.1-1.7 2.8-.8-.4.6-.9 1.4-1.6 1.9 1.6-.2 3.25-1 4.9-1.2.2.5-.1.8-.5 1-.4.3-.94.5-1.25.7.9-.1 2.1-.1 3.1-.2s2-.4 2.4-1.1l-.8-.5c.1.2-.3 1-.7 1.1zM53.88 13.92c.02.06.02.14.05.2-.13-.26-.23-.5-.24-.76.5-.72.9-.7 1.1-.55-.3.3-.6.7-1 1.2zm10.7 2.38c-.16.5.45.5.7.92-.27.08-.64.25-1 .5-.06-.56.02-1.27.3-1.42zm-1.5 2.37v.03l-.47.47.5-.5zm-10.4 11.17l1.03 1.9c1.1-1.22.8-2.02.7-2.75-.1-.8-.1-1.4 1.5-2.3.2 1-1.1 2.4-.6 2.1 2.6-.7.1-2 1.3-3.2l1.6.9c1-1.4 2-2.9 3-4.4L62 21c.2-.2.17-.3.24-.4l.15-.3c.2-.4.5-.9.9-1.2 0 .6 0 1.3.4 1.7.3-.6.8-1 1.2-1.2.2-.1.4-.2.6-.1h.2c0 .04.1 0 .1.3-.1 1-.3 1.9-.6 2.5 0 0 .3-.3.7-.5.3-.2.7-.3.7-.3 0 .16-.6.64-.9.73-.2.4 0 .24.3 0 .3-.2.8-.6 1.1-.6.1.4-.8.84-1.3.87.3.08.7.28 1 .6 0 0 .1.17.1.3l.1.37.2.75.3 1.53c.3 2.03-.2 4-1.4 4.72l-.3-.58c-.6.6 0 1.3.3 2 .4.7.5 1.5-.6 1.6v-.4c-.7.5-1.5.9-2.4 1.3-1 .4-2.2.7-3.4.9-2.5.3-5.2.1-7.3-1.1-.2.5-.6.7-1.1.7.2-.3.4-.8.4-1.5-.4-1.4-2-3.1.5-4.3zM23.5 47.98l-.3-.17-.17-.1h-.05c-.07-.1-.14-.2-.12-.3.05-.1.43-.1 1.83.3l-.2.1c1.8.5 2.5.6 2.9.6.3 0 .3-.1.4-.1l-1.4-1.1-1.4-1.1c1.6.6 2.3.8 2.8.8.2 0 .4 0 .7-.1.3-.1.4-.2 1.3-.4 1.2-.3 2.5-.6 3.6-.6-.5 2.6-1.2 5.1-4 7.3-.3-.5-.6-.8-1-1.3l-.6-.6-.1-.1h-.1l-.1-.1-.4-.4c-.3-.3-.5-.5-.6-.8-.1-.3-.1-.5.3-.6-.3 0-1 0-1.7-.2-.8-.1-1.5-.3-1.8-.5.1 0 0-.1-.1-.2zm5.9 4.93l-.38.3.37-.3zm.08 0c.2-.1.35-.2.55-.1l-.37.5c-.06-.1-.1-.2-.18-.3zm30.06-3.4l.07-.5.1-.6c-.5.7-.9 1.4-1.4 2.1l-.3.5c-.1.1-.1.2-.2.3-.1.1-.4.2-.7.2-.1-.3-.2-.8-.5-.6-.2.5-1.1 2.4-2.2 2.5l.4-1.2c-2 .7-3.1 1.8-4.2 3-1 1.3-2.1 2.6-3.8 3.3-.2-1.1-1.2-1.6-2.1-2.1-.9-.3-2-.6-2.7-.8l.1-.3c-1.2-.1-2.3 0-3.4 0 .2-.7.6-1.5 1-2.2.7-1.3 1.3-2.7 1-4.1.3-.1.5-.1.6 0-1-.2-1.9-.6-2.4-1 .3-.5.3-1.1.4-1.6l.8-.2c-.1.4.2.7.4 1.1l.1-1.2h.3l-.1 1.4c.2 0 .4.1.5.1-.1.4-.1.7.3.9l.2-.8c2.7.4 4.5.6 8.4.5l-.9 1c2.5.2 3.3-4.1 5.6-4.2l.7 2.2c2.3 0 4.7.3 7.3.1.5 0 1-.1 1.5-.2l-1.4 1c-1 .8-1.9 1.4-2.8 1.8zm134.66 7.4h-.02.03c.1.2.1.3.2.4-.2.3-.5.5-.8.6l-1-2.5c.8-.2 1.4.5 1.7 1.5zm-11.42 1.7c.2.5.5 1 .82 1.5-.1.1-.2.1-.38.1 0-1-.8-.7-.67-1.5h.23zm1.02 1.8c0 .1.03.1.04.1h-.1.06zm1.07 1.9l-.16.1v-.5l.3.5zm-41.65-22.6l.63-.3c.24-.1.48-.1.7-.2.47-.1.88-.2 1.2-.3.35 0 .6-.1.66-.2 1-.5.9-1.2.8-2.1 0-.5 0-.9.1-1.3.2-.4.5-.8 1.1-1.1-.6-.3-2-1.3-.4-3.1 2-.9 3.3 1.1 2.6 2.1-.3.3-.6.2-.7 0-.4.5-.8 1.2.1 1.3l-.1-.6c.6.1 1.4-.3 2-.3.7-.1 1.2 0 1.1.6.9-1 .2-1.2-.9-1 1.2-.1 2-.2 2.8-.6l1.3-.3c.5-.1 1 0 1.6.1-.4-.3-.8-.9-.4-1 .9.1 1.4.1 1.7.1.4-.1.5-.3.7-.5s.2-.4.5-.6c.2-.2.6-.3 1.2-.3.7.6.5 1.1.4 1.4 0 .4.1.5 1.3.4 1.2 1-.2 1.7-.7 2.1.5-.2 1-.2 1.4 0 .4.2.8.5 1.1.8.6.6.9 1.4 1.4 1.7l-1 .1c.6 0 1.1.1 1.5.4l.1-.7v-.6c.4.5.8.8.6 1.2.5-.2.7-.6.9-1.1.3-.5.6-1 1.5-1 .3.5.9.9 1.5 1.2.6.4 1 .8.5 1.5-1.7-2-.9.9-2.3.4.3.2.6.5.9.9-.1.2-.3.2-.5.2l.2.5.1.3c.1.2.2.3.3.3.2.1.5 0 .8-.2.7-.2 1.5-.6 2.4.6-.9.3-.9 1.6-.5 1.8-.7-.9.9-1.4 2.1-.9.6 2 1.7 1.5 2.3 2.4L177 42c1-.2 1.5.7 2.5 1.8-.2.17-.4.1-.56-.03.6.4.7 1.2.8 2.1.1 1.1.1 2.3 1.1 3-.1 1.2-1.5.9-1.47 1.88 2.17 1.7 0 2.9 1.9 4.8.9-1.16.54-1.2 2.34.03l-.4-.54-.8-1.2c-.3-.4-.6-.9-.8-1.2l-.4-.5 1.4.9 1.4.9c-.5-1.2-1.8-2.2-2-3 1.5.78 1.2.8 1.8-.2-.4 1.3.2 1.9.9 2.7.7.7 1.5 1.5 1.2 2.67l-2.9 1c0 .7.1 1.2.3 1.7-.9-.2-1.6-.7-2-1.2.1.6 0 1.4-.9 1.5-2.3 0-.7-1.2-2.1-1.8-.5.7-2-.1-2.1 1.5-.6 0-.7-.7-1-1.2-1.2.6-5.5-.1-4.3 1.6l.3.3s-.1.2-.2.2c-2 0-4 .1-6-.5-.9-.3-1.9-.6-2.9-.9-.9-.2-1.9-.5-2.8-.5l.1-.5c-2.3.2-4.9-.8-6.7-.3-.3-.1-.6-.4-.8-.8-.1-.3-.1-.8.1-1-.8-.1-1.3-.1-1.9-.3-.2-.1-.5-.2-.8-.4-.3-.3-.6-.6-1-1.1 1.8 0-.1-.9 1.7.3-.8-.7-1.1-1.3-1.6-1.7-.4-.4-.9-.6-2.2-.7.7-.2.7-.8.5-1.3-.2-.5-.7-.9-1.1-1.1v.7l.1.8-.6-.4c-.1-.1-.3-.3-.4-.5l-.3-.5-.1-.3-.1-.2.9-.2.8-.3c.1-.4.1-.8 0-1 0-.1-.1-.2-.1-.4-.1-.1-.1-.2-.2-.3-.2-.2-.4-.4-.6-.7l-.3-.4-.2-.4c-.4-.6-.5-1.3-.4-1.9.2-.6.6-1.2 1.7-1.4-.3-.7-.7-.4-1.1 0-.4.3-.8.8-1.3.1.1-.4.6-.7 1-.9zm-5.62 10c.5.8 1 1.6 1.6 2.3l.3.4c-.9-.7-1.7-1.6-2.4-2.3l-.46-.5.87.2zm-3.9.3l-.6-1.2 1.4.3-.3 1.2-.17.5-.38-.6zm50.5 16.7c.34.1.3.4.3.8s.04.8.8 1.6c0 0-.5 0-.9-.1-.2 0-.4-.1-.53-.1l-.25-.1c-.7.2-.7.9-1.1 1.8-.17.4-.4.8-.77 1.1-.4.3-.8.4-1.53.2.5-.5.45-.9.53-1.3.04-.2.1-.4.26-.6l.5-.5c-.3 0-1.1-.3-1.2.4-.2-.4-.8-.1-1.6 0-.7.1-1.6.2-1.9-.4-.5.3-1 1.3-2.1.9 0-.1 0-.3.1-.4-.3.4-1.9.2-1.2 1.4-.6-1-1.6-1.6-2.8-2-.6-.2-1.2-.3-1.9-.3h-.6l-.8-.1c-1.1-.1-2.2-.2-3.2-.5-.9-.3-1.8-.8-2.3-1.6-2.3-.1-5-.6-6.8-1.3.3-.2.2-.5.5-.2-1-.9-1.7-.5-2.4 0-.7.4-1.6.8-2.7-.5-.5-2.2 1.9.1 1.4-.9.7-1.6-.1-1.9-1.2-2.3-.5-.1-1.1-.4-1.6-.7l-.6-.6c-.1-.2-.1-.3-.2-.5 1.6.4 3 .8 4.4 1.4l-.8-.5c.8-1.2 1.4-.5 2.3.2.9.7 2 1.8 3.3 1.4-.6.1-1 1.3-.8 1.1 1.5.5 3.2.7 5 .6 1.9-.1 3.9-.4 6.2-.6l-.6.6c1.8.9 4.7.7 6.7 1.2.6-.6 1.7-.5 1.1-1.5 1.5 1 2.9 1.4 4.4 1.5 1.5.1 2.9-.2 4.3-.6l1.9-.5c.1.4.1.8 0 1.2l.3-.6.2-.6c1.3.4.3 2.2.7 3.1-1-.2-1.4.1-2.1.1zm-5.76-23.2h.02z"/><path d="M69.85 5.4v.03c.02-.02.02-.03 0-.03zm100.23 19.37l.24.1-.24-.1zm85.96 36.6l.27.17c0-.1-.1-.16-.2-.17zM151.6 74.84l-.35-.03.36.1zM53.88 15.77c-.06.1-.07.2-.17.3.3-.02.4-.05.6-.1l-.1-.54c-.1.13-.2.24-.3.34zm116.6 42.95c-.07-.07-.07-.12-.1-.18l-.1-.04c.07.06.15.12.2.22zM35.4 33.64V34l.46-.32m161.7 29.92c-.02-.08-.18-.2-.38-.34.06.12.17.25.38.35zm11.24-.87l1.66.4c-.73-.25-1.25-.35-1.67-.4zm8.88.07c.1-.26.1-.46.13-.63l-.1.63zm-32.9-25.98c.07.1.15.2.25.27.72.5.3.1-.26-.3zm-41.9-6.02c.2-.53.4-1.05.7-1.52-.7.47-1.25.9-.7 1.5zm31.34 49.42v-.02l-.3-.08.3.1zM145.38 28c-.85.25-1.43.7-1.8 1.28.6-.37 1.36-.7 1.8-1.28zM255.5 64.6c.02-.1.06-.16.1-.2l-.48.08.4.13zm.1-.2l.48-.1c-.2-.04-.38-.06-.48.1zm1.5-.3l-1.02.2c.33.06.73.18 1.02-.2zm-13.17-1.63l-.17.52c.08-.1.14-.3.17-.6zm-3.47-.07c.83.18 2 1.26 3.17 1l.13-.4c-.58.74-2.47-1.42-3.3-.6zm-14.88-6.44l1.52.14 1.52.18c-.54-.55-1.27-1.3.1-1.46-3.9-1.57.84 1.2-3.14 1.14zm-9.42-.26c1.6-.38-.07-.82 0-1.15-1 .58-1.24.73 0 1.14zm-64.56-3.14c-1.03-.25-.2.47-.63 1.17l.64-1.17zm-6.9-10.46c0 .23.1.44.07.44l.14.3-.1-.57v-.64.47zm19.72 23.13l.04 1.67c.84-.14 1.33-1.9-.04-1.67zm-37.87-10.58c-.26-.96-.55-1.62-1.2-1.07.4.36.86 1.2 1.2 1.07zM28 47.45l-.26-.02c-.02 0 .25.52.27.52v-.5zm243.7 62.2l.07-.3c-.2-.14-.4-.3-.62-.4l.55.7z"/></g></svg>