<svg xmlns="http://www.w3.org/2000/svg" width="1024" height="76.5" viewBox="0 0 1024 76.5"><g fill="#FF33D8"><path d="M1002 40.6c.4-1.7 0-5.6-1.4-4.8l-.8 6.7 2-2zm-10-12c-1.4 3.4-3 9-1.8 15 1.4-6.3 2-3.7 3.3-11.3 1.4-.8 2.5 2 2.4 4.5 0-1.7 2 1.4 2-2.8-2-5-5-5.2-7-1-1-1.3 0-3 0-4.3zM855.8 23l1 .7c-.3-.4-.6-.6-1-.7zm-84.3-1.5c.7-.2 1-.8 1-1.4-.7 1-1 1-1 2zm-14.5-7l1 .5c-.5-.6-.8-1-1-.5zm98.8 8.5l-2.3-2c0 2 1.2 1.5 2.3 2zM974 45.3c.4-.3.8-1 1-1.8l-1 .7v1zm-81.2-29h.7c0-.7.3-1.6.4-2.7l-2 2.8zm28.4-2c-.6 0-.7 5.5-.8 8 .3-2.4.7-3.5 1.2-4 0-1 0-2.3-.4-4zm45.5 8.4l.8-.8h-.8zm-94.3-7c0-1-.2-1.5-.4-2 0 .8.2 1.4.4 2zM75.2 66v-1c0 .6-.2 1 0 1zm-33-27.8l.4-.3v-4l-.4 3zM730.5 7.6h.2c.6-.5.2-.4-.2 0zM489 15c3 5-4.3 6.6 0 12-.5-2 3.5-8.6 0-12zm484.2 29.6H972c.5.2 1 .2 1.2 0zM489 27v.2l.3.5-.4-.6zm181-15c0 1 .4 2 .7 2.6 0-.6-.2-1.3-.7-2.5zm45.3 7.3l-1-.7c.3.5.7.6 1 .7zm-68.6 1.2c-.6-.4-1-1.2-1.7-.4 0 1 .2 1 .3 1 .3 0 .7-1 1.4 0zm-24.4.3c0 .5.3.8.4 1.2l.8-.3-1.2-1zM149.5 63.3c-.5-1.5-1-3.3-1-5 .2 4-3.3 5.4 1 5zM973.8 42c0 1.6-.3 2.3-.6 2.6l.8-.3c0-1 0-1.7-.2-2.2zM646.4 64.8l-4-.7c1.2 1 2.6 1 4 1zM325 62.2l-1 .7c.3 0 .6 0 1-1zM631 65c-.8-2-1.5-3-2.3-3.8 0 .4-.3.8-.4 1.5L631 65zm-482.7-6.8z"/><path d="M122.8 71.6c3.7.2 1.7-7.2 2.5-11.5 4.4-2 2 6 3.5 10 2.8-2 5-8 7-8 0 1 .5 2 0 3 3-5 8.7 0 12-7 .4 1 .5 2 .5 2-.5-3-.6-7-.5-10 1.7 0 3-4 3.7 0-1 0-1 2-1.6 4l1-2c1 7-3 2-3 7 3-2 7-8 10-6 0 7-6 3-3 9l-4-2c3 11-3-1 0 11 5 2 6-3 11-1 1-4-1-5 1-9 7-7 6 17 11 8 1-4 2-13 6-8l-1 7c5 1 3-11 8-6-1 3-4 3-4 4 3 6 2-4 5-4v7c5-1 11-6 17-7 0 2-1 4 0 6 8-3 17 1 24 5l3-6c1 0 1 3 0 4 3 2 0-4 1-6 2 0 2 4 1 5 5-5 14-10 20-4l-1 2c4 2 4-12 8-7l-1 1c9 3 19-3 25 6 1-8 9 4 10-8 5 6 4 8 11 12 2 0 3-7 5-9v6l4-6 2 7 2-1c-1 0-2-3-2-4 3-3 8 4 8 7l9-6c0 3-1 4-2 5 4-6 1 7 5 1-1-1 0-3 0-4 2 4 6 4 10 2l-1 4c6 1 13-2 20-2-3-2-2-9 0-10l1 7c1-4-2-2 1-7 3 1 2 7 1 9l3-3c0 2-1 3-1 6 1-4 5 7 7 0v1c7 0 10-2 15-3 0-5 2-4 4-9 4 2 9 6 14 6 3-3 1-5 2-9 1 5 6 5 3 9 6-1 8-1 15-5 0-2-1-3-1-5 2-1 4 2 3 4v1c9-8 20 15 26 4l7-5c3 1-2 4 1 7 7-8 12 1 18-4 5 15 17-1 24 8l-1-4c1-4 2 2 3 3 0-3-2-3-1-5 14-4 29 5 44 8 5 1 3-18 10-10l-2 7c11-8 22 0 32-6 0 1 0 3-1 3 2 5 8 0 8-4 1 .7 0 4 1 6 2 3 6-6 7-1 0 1-1 2-1 2 1-2 7 .6 5-5 4 3 8-2.5 11 1 2-6 7 3 8-6 0 9 7 7 9 3-1 3 2 3 1 6 3 0 5-2 5-6 5 11 10-9 13 5 9-5 16-8.3 24-11 0 9-9 1-8 11 7-4 11-11 18-9 2 1-1 4-2 5 7-4 14 .7 20-4.3 0 1-1 2-2 3 1 0 3 1 2-3l-1 1c-2.8-6 4.2-12 5-15-2 12 6 3 3 18 1-1 2-3 1-6 1 1 2 2 .5 5.6 4.5-2 3-6.5 7-6.5 0 2-1 3-1 5 2-4 4-8 7-6 0 1 0 3-1 3 6-1 10-10.5 17-7-2 9 2 3 2 10.4l3-4-1-4c3 0 6-5.4 9-3l-2 3 5-1.4-3-2.5c3-4 0-10 4-8-1 0 3 0 5 4 1-3 3-5 5-3 1 2 0 8 0 9.3 1.6-6 7-1.5 9-8-.4 1.5-.4 5.4 0 6l1-5c2 2 2 2 2 6 4.5 1-1.4-9 4-5-1 0-1 1-1 2 5 2 9-4 14-1 1.4 7-4 1-2 8 7-2 14-10 21-8l-1-1c1-11 5 5 8.3 0-1 1-1 6-1 4.3 5 2 9-3 16-6l-1 3c3 2 7 1 10 2 1-2 3-2 1-6 10 15 17-9 25 4-1 0-2 3-1 3l7-3c0-5-1-3-2-6 1-3 3-5 5-5-3 3 0 7 2 10-.8-2 0-3 0-5 3.2 8 0-9 5-4v2c2-1.6 3-5 5-4 1 5-1.8 2.3-1.8 7 2.4-.7 5-10.6 7.3-5-1 2-3 2-4 3.4 3 6 3 4 5 5l4 3-1-2c3-14 7-3 11-12-4 9-1 5-1 11 2 2 3 3 3 5 2-5 4 3.6 7-4 .3 2 2.4 0 2 5 3-1-.7-3-.6-5.3 4-6.5 10.6 8 16.5-1.3 5-4 6-11 11-14 2 3-1 7-1 7 3 3 5 2 7 0-.4 1.5 0 3 1 5 2-1 1-7.7 4-5 0 2.3-1 6-2 8 2.7-2 5-5.6 7-7.5 1 3-1 5-2 7 3-2 7-4 8-9l-2-2c1 0 1 5 0 6-2 4-3.2-2-3.4-4l1-2c-2-11-7 2-10 2l1-8-3 7c-1-2-2-7 0-8-3-4-2 3-5-1-.5-1-.4-1 0-2l-2 2.3c0-2-1-6 1-5-5-5-7 6-9 0v-1c-6 3-.4 6-5 13l-6-14-.5 6c-1 0-2-1-2-3-3 4 0 2-1 6-4-6-9 3-10-7-1 5 3 3 0 7-1-11-4 2-7-3 0-6 3-3 0-8-2 9-6-2-8 0 0 7-5 3-9 6 0-3-8-4-12-6v-1c-1 7-5 6-7 7 0-5 0-6 2-8h-3c-1 2-2 4-3 4v-6c-3 0-7 7-11 3 0 5 4 14-1 17-1-2-1-7 0-8-1 0-2 2-3 1l3-4c-2-2-1 4-3 3.8 0-4-1-3-1-6 .5-.4 1.5 1.6 2 0-2-1-4-3-5-6 0 2 0 5-1 6-3.4 0-1.3-5-3.4-7-1 2.7-3 0-3 6-1 0-2-3-2-4-2 2.3-8 1-6 7-5.5 6-12-3-18 0v-2c-3 2.6-8 2-10 6-1 0-3-3-2-6-3 2-3 4-7 1 3-3.4-1-3 3-2.4-3.5-2-4-5-8 .7 1-5-3-6-4-5l3 4c-2 1-4 1-5 0l.2-6c-7-8-12.4 14-18 .7-2 4.4 4 3 2 8.4-3-1-7-10-8-10-4.3-4-4 10-8.4 7 1 2 1.2 9-2 11-3-1-4-10-2-12 1 0 1 0 1 1 1-1 2-2 1-4v3c-2-2-6-2-5-6-3 2-1 4 1 5-4.8-3.5-7 0-11-2 1 2 1 4 1 4-7-2.5-3 5-7 6-3-3.5 0-8.6-4-5.5-3-3-1-6.6 0-8.6-3 5-7-3-9-4l2-2c-1 2-2 2-3 2l1.2 5c-1-1-2-1-2-3-1 3 1 8-1.3 12.6-1.5-2.2-5 2.8-5.4-4 5 2 0-7 4-8-1 1-2 1-3 0 0-.3 0-1 1-1.3-5-6-2 7-7 7 0-4-1-7-2-6 2 0 1 6-1 8.5-3-2.5-3 2-5 2l2 1c-1 4-2 3.5-5 4.6 0-3 2-2 1-3-2 6-6-7-9-3-1-3 0-7-1-8-4 4-4-5-8.4-1 2 5 2 3-1 8l7-3-4 7c2 0 4-3 6-3-2 4-2 3-.7 7-3-7-5 4-9-.4v-9c-5-5-8 6-15 3.3l2 2c-1 4.2-4 .2-6 2.2 0-4-1-6-2-8 0 3-4 0-5 7l-3-5c-5-2-5 11-10 10 1-4-1-7 2-10-2 0-3-1-3 2-1-3-5 5-6 1-1 1-1 6-3 5-.5-1 0-2 0-2 0 2-3 3-1.5 7-5-12-14 1-18-10l-11 3c0-1.5 0-2 1-2-4-4-2 11-7.3 7-3-6 3-3 1-6-1-13-6 2-10-5.3l1-1c-3-5-6.2 5-11 4v-2c-3 7-8.2 9-12.3 11 1-5 2-3 1-8-2 1 .3 8-3 10-1-3-4-6-4.7-11l4-.4c-2-7-5 1-7-1v-3c-5 1-5 9-11 9l1 2.7c-3 8-3-5-6 1l-1-8c-2 2-7.8 8-11 9 2-6 6-9 9-12-2 0-7 1-8 5 1-1 2-3 2.2-2-3 6-6 10-10 9 0-15-11-3-14-15-8 6-16-2-24-1 3 12-2 0-2 12.7-2 1-3 1-3 0l-6-7c-1-3.3 2-3 2-5.2-5-1-2-6-5-9 1 4-1 6-4 5l4 6c-6 7-5-10-11-3.3l2-4c-3 2-11 0-14 10-1-2-2-5 0-6-7-1-16 11-22 5v-3c-1 1-2 5.4-4 2.5 0-1 1-3 0-3-1 1-4 5-5.3 3.6l2-3c-7-4-11 8.4-17 11 0-9-6-12-9-13-8-1-14 7-22 11-5-10-16-4-24-10 1.6 1.6 0 7-1 8-2-2-5 6-5-2h1c-1-8-5-6-8-6v11c-7.7-15.5-20 5.5-24-8-2 2.5-4 2.4-6 5v-6c-6-1.5-8-2-14-1l1-4c-4-1-5 16-8 16l-1-9c-7 0-13-8-19 0 0-2 0-4 1-4-3-1-11.7-6-10.6 6 0-8-6-1-10 2v-6c-3 7-3 9-7 11-1-.6-1-4.3 0-3-3-3-3 5.4-6 2.4l2-3c-3-.6-3 1.3-5 6-2 2-6-1-6-6 0 3-2 7-4 5 0-2 0-3 1-4-6-4-8 6-12 1 0-2 0-3-1-4 4 0 8 1 7 1 0-5-3-6 0-13-3 4-7.5 12-11 10 0-1-1-1-1-2v-1c-1-.3-2 0-2 1-1-1-2-1.4-3-2-1-4-4-2-6-3 0 5-2 5 0 9 0-1 0-1 1.4-1l.3-1h4c-2 3-3 6-5 2l-2.7 9c-2-7-7-12-7-16-5 3-12 2-16 13-1 2-1-3-2-4 1-1 2-1 2-3-3 2-8 1-9 8-3-3 2-7-3-5.8l1-2c-10-12-17 19-28 3 1 1 1 1 1 2-13-7-26 6-39-4.8-4-2-4 2-6 6l-1-6-4 7c-5 5-9-15-16-5l1 4c-2.3-1-8 2-7.2-2 0 .3-1 4-2 2v-3l-5 6c-4-2 1-12.7-5-13-3 1-7.8 9-6.8 11 1 0 2 2 2 5l-2 2c0 9.3-2 19 3.6 25.4l4-6 1 4.4-3.4 1c2 4 3 1 4-2 .5 3 1 4 2 5l4-9c1 4-1 7 1 9 2-4-1-8 2-11 2 5 2 8 4 4 .4 3 0 4-1 5 2-3 5-1 6-6 2 5 7-1 7 8 .5-2 3.3-7 5-7-3 11 7 1 6 12 2.4-9 9-4 13-9 0 1-.6 2-1 2 2.4 1 3 4 5 5.2 0-8 4-9 6-14 3 8-2 9.5-1 17 0-7 5-7 4-12 2.3 5 2 2 3 9 .5-10 2.3-2 4-8 3.5 5 1 9 4.6 6 2 3-1 7-1 7zm86.4-17l-1.8.4 1.8-.4zm7.3 0c-1-.4-2-.4-3.2-.3-.3-2 0-4 .7-4-.3 1.4 1.4 2.5 2.4 4.2zm-15.5-39c1.2-1 1.6.2 1.7 1.4-.5 0-1 .3-2 .7v.7c0-1 0-2 .3-3z"/><path d="M199 23c-.2 0-.3.3-.5.3l.7 1.3.4-1.8h-.6zm658 .7h-.3l.4.6v-.6zM316.8 65v-1.4l-.7 1.2m582-23c0 .5 1 1 1 1.4v-1.4zm18 .7l3 2c-1-1.2-2-1.7-2-2zm14 2.3c1-1 1-1.7 1-2.4v2.4zM717 57h-.6c-1 1.3-.3.8.5 0zm62.5-14.5c-.6 1-1.2 2-2 2.7 1.2.4 2 .5 2-2.7zM646.8 65v-.2h-.4.4z"/><path d="M774.7 45c1 1.2 2 1 3 .2-1-.4-2-1-3 0zm211 .4l.8.2v-1l-.7.8zm.8-.7l.7-.7c-.4 0-.6 0-.7.7zm2-2l-1.3 1.3c.5 0 1 .2 1.4-1.4zm-20.5.7zm-5.2.8c1.3.4 3.4 4.2 5 3l.2-1.8c-.7 3-4-4.7-5.2-1.2zm-23.2-24.4L944 21c-.7-2-1.8-5 .2-5.6-6-6.3 1.3 4.8-4.6 4.2zm-14-2.8c2.4-1 0-3 0-4.3-1.5 2-1.8 2.5 0 4.4zm-100 3v-5c-2 .7 0 2 0 5zM807 47l2 3 .6-4.7m-14.8-34.5l.7-.8-3 2m-166 3.8l.7 6.3c1.2-1 1.4-8-.7-6zM554 23c-1-3-3-5-4.2-2 1.7.5 3.3 3 4.2 2zm-218-8.6l1.3-2-2.7 1.7"/></g></svg>
